<?xml version="1.0" encoding="UTF-8"?>
<svg id="Camada_1" data-name="Camada 1" xmlns="http://www.w3.org/2000/svg" viewBox="0 0 763.6 975.72">
  <defs>
    <style>
      .cls-1 {
        fill: #1d1d1b;
      }
    </style>
  </defs>
  <g>
    <path class="cls-1" d="M445.82,295.17h0l54.35,82.72c-34.14,30.61-77.97,44.09-124.37,44.09-56.45,0-105.34-20.23-145.33-60.11-40-39.89-60.28-88.84-60.28-145.5s20.28-105.3,60.28-145.19c39.99-39.89,88.89-60.11,145.33-60.11,17.41,0,34.38,2,50.49,5.95V5.65c-16.13-3.75-33.11-5.65-50.49-5.65-59.69,0-111.21,21.36-153.15,63.5-41.94,42.14-63.21,93.58-63.21,152.87s21.26,111.23,63.2,153.16c41.94,41.94,93.47,63.2,153.16,63.2,48.95,0,92.48-15.17,129.38-45.09,3.15-2.55,6.31-5.27,9.4-8.08l-50.03-74.42c-4.19-6.24-11.22-9.98-18.73-9.98Z"/>
    <path class="cls-1" d="M604.16,432.73V87.77h-22.42l-117.16,153.61-49.26-64.47,101.92-129.24h0c-9.75,0-18.96,4.47-25,12.12l-84.53,107.18-60.53-79.21h-22.42v184.39l-.56.71-55.11,69.88h0c9.75,0,18.96-4.47,25-12.12l30.67-38.89v61.37c7.34-1.24,12.95-7.64,12.95-15.33v-62.46l.56-.71,68.65-87.05,57.65,75.43,126.64-165.99v320.41c0,7.69,5.61,14.09,12.95,15.33ZM337.72,255.74V97l61.61,80.62-61.61,78.13Z"/>
  </g>
  <g>
    <path class="cls-1" d="M209.26,839.34l-96.36-265.61h-15.41L0,839.34h15.97l43.2-116.83h91.86l42.45,116.83h15.78ZM64.62,707.66l40.57-111.39,40.39,111.39h-80.96Z"/>
    <path class="cls-1" d="M378.96,585.94c30.55,0,57.23,10.08,80.02,30.24l11.46-10.15c-25.92-23.66-56.42-35.5-91.48-35.5-37.7,0-69.78,13.31-96.27,39.92-26.48,26.61-39.73,58.64-39.73,96.08s13.24,69.78,39.73,96.27c26.48,26.48,58.58,39.73,96.27,39.73,35.06,0,65.19-12.08,90.35-36.25v-86.22h-14.84v80.96c-21.79,17.54-46.96,26.29-75.51,26.29-33.31,0-61.77-11.77-85.38-35.31-23.61-23.54-35.41-52.03-35.41-85.47s11.8-61.74,35.41-85.28c23.61-23.54,52.06-35.31,85.38-35.31h0Z"/>
    <polygon class="cls-1" points="741.95 839.34 756.98 839.34 756.98 573.72 735.19 573.72 639.2 699.58 543.02 573.72 521.24 573.72 521.24 839.34 536.26 839.34 536.26 589.88 639.2 724.56 741.95 589.88 741.95 839.34"/>
    <path class="cls-1" d="M21.45,926.31l-17.93,48.86h6.42l7.51-20.31h13.27l7.37,20.31h6.38l-17.69-48.86h-5.33,0ZM19.38,949.58l4.72-12.97,4.69,12.97h-9.41Z"/>
    <path class="cls-1" d="M107.38,926.31h-10.33v48.86h10.33c8.15-.05,14.44-2.29,18.88-6.72,4.93-4.96,7.4-10.86,7.4-17.73s-2.42-12.63-7.27-17.52c-4.53-4.55-10.86-6.85-19.02-6.89h0ZM121.64,964.75c-3.46,3.35-8.23,5.02-14.29,5.02h-4.14v-38.03h4.14c6.07,0,10.83,1.65,14.29,4.96,3.82,3.87,5.74,8.54,5.74,14.03s-1.91,10.19-5.74,14.03Z"/>
    <polygon class="cls-1" points="204.13 963.94 190.83 926.31 184.44 926.31 201.96 975.18 206.24 975.18 223.79 926.31 217.38 926.31 204.13 963.94"/>
    <path class="cls-1" d="M299.94,925.63c-7.08,0-13.09,2.47-18.01,7.4s-7.38,10.81-7.38,17.62,2.46,12.75,7.38,17.68,10.93,7.38,18.01,7.38,13.13-2.46,18.04-7.38,7.38-10.82,7.38-17.68-2.46-12.69-7.38-17.62-10.94-7.4-18.04-7.4ZM313.49,964.65c-3.81,3.81-8.32,5.7-13.55,5.7s-9.71-1.9-13.51-5.7c-3.81-3.81-5.7-8.46-5.7-13.99s1.9-10.12,5.7-13.94c3.81-3.81,8.31-5.72,13.51-5.72s9.75,1.9,13.55,5.72c3.81,3.81,5.7,8.46,5.7,13.94s-1.9,10.19-5.7,13.99Z"/>
    <path class="cls-1" d="M404.03,931.13c4.78,0,9.4,1.98,13.89,5.94l4.28-3.81c-5.5-5.02-11.56-7.54-18.17-7.54-7.11,0-13.11,2.47-18.01,7.4s-7.35,10.8-7.35,17.59,2.45,12.74,7.35,17.64,10.91,7.35,18.01,7.35c6.61,0,12.66-2.5,18.17-7.51l-4.28-3.81c-4.48,3.96-9.11,5.94-13.89,5.94-5.21,0-9.7-1.89-13.49-5.67s-5.69-8.43-5.69-13.95,1.9-10.11,5.69-13.9,8.29-5.69,13.49-5.69h0Z"/>
    <path class="cls-1" d="M490.91,926.31l-17.93,48.86h6.42l7.51-20.31h13.27l7.37,20.31h6.38l-17.69-48.86h-5.33,0ZM488.85,949.58l4.72-12.97,4.69,12.97h-9.41Z"/>
    <path class="cls-1" d="M590.6,931.13c4.78,0,9.4,1.98,13.89,5.94l4.28-3.81c-5.5-5.02-11.56-7.54-18.17-7.54-7.11,0-13.11,2.47-18.01,7.4s-7.35,10.8-7.35,17.59,2.45,12.74,7.35,17.64,10.91,7.35,18.01,7.35c6.61,0,12.66-2.5,18.17-7.51l-4.28-3.81c-4.48,3.96-9.11,5.94-13.89,5.94-5.21,0-9.7-1.89-13.49-5.67s-5.69-8.43-5.69-13.95,1.9-10.11,5.69-13.9,8.29-5.69,13.49-5.69h0Z"/>
    <rect class="cls-1" x="663.72" y="926.31" width="6.14" height="48.86"/>
    <path class="cls-1" d="M745.91,926.31h-5.33l-17.93,48.86h6.42l7.51-20.31h13.27l7.37,20.31h6.38l-17.69-48.86h0ZM738.51,949.58l4.72-12.97,4.69,12.97h-9.41Z"/>
  </g>
</svg>