<?xml version="1.0" encoding="UTF-8"?>
<svg id="Camada_1" data-name="Camada 1" xmlns="http://www.w3.org/2000/svg" viewBox="0 0 1402.32 499.83">
  <defs>
    <style>
      .cls-1 {
        fill: #f5f3f2;
      }

      .cls-2 {
        fill: #f5f3f2;
      }
    </style>
  </defs>
  <g>
    <path class="cls-1" d="M330.79,340.93h0l62.77,95.55c-39.43,35.36-90.05,50.93-143.65,50.93-65.2,0-121.68-23.36-167.87-69.44C35.84,371.9,12.41,315.35,12.41,249.91s23.43-121.62,69.63-167.71C128.24,36.13,184.72,12.77,249.91,12.77c20.11,0,39.72,2.31,58.32,6.87V6.53c-18.63-4.33-38.24-6.53-58.32-6.53C180.97,0,121.46,24.68,73.01,73.34,24.57,122.02,0,181.43,0,249.91s24.56,128.47,73,176.91c48.44,48.44,107.96,73,176.91,73,56.54,0,106.82-17.52,149.44-52.08,3.64-2.95,7.28-6.08,10.86-9.33l-57.78-85.95c-4.84-7.2-12.96-11.53-21.64-11.53Z"/>
    <path class="cls-1" d="M513.68,499.83V101.38h-25.9l-135.32,177.43-56.9-74.46,117.73-149.28h0c-11.26,0-21.9,5.16-28.87,14l-97.63,123.8-69.91-91.49h-25.9v212.98l-.64.82-63.65,80.71h0c11.26,0,21.9-5.16,28.87-14l35.43-44.92v70.89c8.48-1.43,14.95-8.82,14.95-17.7v-72.15l.64-.82,79.3-100.55,66.59,87.12,146.27-191.73v370.1c0,8.88,6.48,16.27,14.95,17.7ZM205.92,295.4V112.04l71.17,93.12-71.17,90.24Z"/>
  </g>
  <g>
    <path fill="none" stroke="#f5f3f2" stroke-width="1" d="M746.06,408.53h-4.14v38.03h4.14c6.07,0,10.83-1.67,14.29-5.02,3.82-3.82,5.74-8.5,5.74-14.03s-1.91-10.15-5.74-14.03c-3.46-3.31-8.23-4.96-14.29-4.96Z"/>
    <polygon fill="none" stroke="#f5f3f2" stroke-width="1" points="703.34 184.45 784.31 184.45 743.92 73.06 703.34 184.45"/>
    <polygon fill="none" stroke="#f5f3f2" stroke-width="1" points="658.1 426.37 667.51 426.37 662.82 413.39 658.1 426.37"/>
    <polygon fill="none" stroke="#f5f3f2" stroke-width="1" points="1127.57 426.37 1136.97 426.37 1132.28 413.39 1127.57 426.37"/>
    <path fill="none" stroke="#f5f3f2" stroke-width="1" d="M938.66,407.79c-5.2,0-9.71,1.9-13.51,5.72-3.81,3.81-5.7,8.46-5.7,13.94s1.9,10.19,5.7,13.99c3.81,3.81,8.31,5.7,13.51,5.7s9.75-1.9,13.55-5.7,5.7-8.46,5.7-13.99-1.9-10.12-5.7-13.94c-3.81-3.81-8.32-5.72-13.55-5.72Z"/>
    <polygon fill="none" stroke="#f5f3f2" stroke-width="1" points="1377.23 426.37 1386.64 426.37 1381.95 413.39 1377.23 426.37"/>
    <path class="cls-2" d="M847.98,316.13l-96.36-265.61h-15.41l-97.49,265.61h15.97l43.2-116.83h91.86l42.45,116.83h15.78ZM703.34,184.45l40.57-111.39,40.39,111.39h-80.96Z"/>
    <path class="cls-2" d="M1017.69,62.73c30.55,0,57.23,10.08,80.02,30.24l11.46-10.15c-25.92-23.66-56.42-35.5-91.48-35.5-37.7,0-69.78,13.31-96.27,39.92-26.48,26.61-39.73,58.64-39.73,96.08s13.24,69.78,39.73,96.27c26.48,26.48,58.58,39.73,96.27,39.73,35.06,0,65.19-12.08,90.35-36.25v-86.22h-14.84v80.96c-21.79,17.54-46.96,26.29-75.51,26.29-33.31,0-61.77-11.77-85.38-35.31-23.61-23.54-35.41-52.03-35.41-85.47s11.8-61.74,35.41-85.28c23.61-23.54,52.06-35.31,85.38-35.31h0Z"/>
    <polygon class="cls-2" points="1380.67 316.13 1395.7 316.13 1395.7 50.51 1373.91 50.51 1277.92 176.38 1181.74 50.51 1159.96 50.51 1159.96 316.13 1174.98 316.13 1174.98 66.67 1277.92 201.35 1380.67 66.67 1380.67 316.13"/>
    <path class="cls-2" d="M660.17,403.1l-17.93,48.86h6.42l7.51-20.31h13.27l7.37,20.31h6.38l-17.69-48.86h-5.33,0ZM658.1,426.37l4.72-12.97,4.69,12.97h-9.41Z"/>
    <path class="cls-2" d="M746.1,403.1h-10.33v48.86h10.33c8.15-.05,14.44-2.29,18.88-6.72,4.93-4.96,7.4-10.86,7.4-17.73s-2.42-12.63-7.27-17.52c-4.53-4.55-10.86-6.85-19.02-6.89h0ZM760.36,441.54c-3.46,3.35-8.23,5.02-14.29,5.02h-4.14v-38.03h4.14c6.07,0,10.83,1.65,14.29,4.96,3.82,3.87,5.74,8.54,5.74,14.03s-1.91,10.19-5.74,14.03Z"/>
    <polygon class="cls-2" points="842.85 440.73 829.55 403.1 823.16 403.1 840.68 451.97 844.96 451.97 862.52 403.1 856.1 403.1 842.85 440.73"/>
    <path class="cls-2" d="M938.66,402.42c-7.08,0-13.09,2.47-18.01,7.4s-7.38,10.81-7.38,17.62,2.46,12.75,7.38,17.68,10.93,7.38,18.01,7.38,13.13-2.46,18.04-7.38,7.38-10.82,7.38-17.68-2.46-12.69-7.38-17.62-10.94-7.4-18.04-7.4ZM952.21,441.44c-3.81,3.81-8.32,5.7-13.55,5.7s-9.71-1.9-13.51-5.7c-3.81-3.81-5.7-8.46-5.7-13.99s1.9-10.12,5.7-13.94c3.81-3.81,8.31-5.72,13.51-5.72s9.75,1.9,13.55,5.72c3.81,3.81,5.7,8.46,5.7,13.94s-1.9,10.19-5.7,13.99Z"/>
    <path class="cls-2" d="M1042.75,407.92c4.78,0,9.4,1.98,13.89,5.94l4.28-3.81c-5.5-5.02-11.56-7.54-18.17-7.54-7.11,0-13.11,2.47-18.01,7.4s-7.35,10.8-7.35,17.59,2.45,12.74,7.35,17.64,10.91,7.35,18.01,7.35c6.61,0,12.66-2.5,18.17-7.51l-4.28-3.81c-4.48,3.96-9.11,5.94-13.89,5.94-5.21,0-9.7-1.89-13.49-5.67s-5.69-8.43-5.69-13.95,1.9-10.11,5.69-13.9,8.29-5.69,13.49-5.69h0Z"/>
    <path class="cls-2" d="M1129.64,403.1l-17.93,48.86h6.42l7.51-20.31h13.27l7.37,20.31h6.38l-17.69-48.86h-5.33,0ZM1127.57,426.37l4.72-12.97,4.69,12.97h-9.41Z"/>
    <path class="cls-2" d="M1229.32,407.92c4.78,0,9.4,1.98,13.89,5.94l4.28-3.81c-5.5-5.02-11.56-7.54-18.17-7.54-7.11,0-13.11,2.47-18.01,7.4s-7.35,10.8-7.35,17.59,2.45,12.74,7.35,17.64,10.91,7.35,18.01,7.35c6.61,0,12.66-2.5,18.17-7.51l-4.28-3.81c-4.48,3.96-9.11,5.94-13.89,5.94-5.21,0-9.7-1.89-13.49-5.67s-5.69-8.43-5.69-13.95,1.9-10.11,5.69-13.9,8.29-5.69,13.49-5.69h0Z"/>
    <rect class="cls-2" x="1302.44" y="403.1" width="6.14" height="48.86"/>
    <path class="cls-2" d="M1384.63,403.1h-5.33l-17.93,48.86h6.42l7.51-20.31h13.27l7.37,20.31h6.38l-17.69-48.86h0ZM1377.23,426.37l4.72-12.97,4.69,12.97h-9.41Z"/>
  </g>
</svg>